<?xml version="1.0" encoding="utf-8"?>
<!-- Generator: Adobe Illustrator 16.0.0, SVG Export Plug-In . SVG Version: 6.00 Build 0)  -->
<!DOCTYPE svg PUBLIC "-//W3C//DTD SVG 1.1//EN" "http://www.w3.org/Graphics/SVG/1.1/DTD/svg11.dtd">
<svg version="1.1" id="Capa_1" xmlns="http://www.w3.org/2000/svg" xmlns:xlink="http://www.w3.org/1999/xlink" x="0px" y="0px"
	 width="2000px" height="2000px" viewBox="0 0 2000 2000" enable-background="new 0 0 2000 2000" xml:space="preserve">
<g>
	<path fill="#2B2F40" d="M1543.859,1122.807h-70.176c-19.377,0-35.087,15.711-35.087,35.088s15.71,35.088,35.087,35.088h70.176
		c19.377,0,35.088-15.711,35.088-35.088S1563.236,1122.807,1543.859,1122.807z"/>
	<path fill="#2B2F40" d="M1894.736,561.403c-58.039,0-105.263,47.224-105.263,105.264v105.732
		c-192.127,5.044-399.452,51.557-455.78,148.574c-12.794,22.035-16.549,43.035-15.303,61.482H210.526V842.105
		c0-58.04-47.219-105.264-105.263-105.264S0,784.065,0,842.105v561.403c0,19.377,15.71,35.088,35.088,35.088h140.351
		c19.377,0,35.088-15.711,35.088-35.088v-105.263h1578.947v105.263c0,19.377,15.71,35.088,35.088,35.088h140.351
		c19.377,0,35.088-15.711,35.088-35.088V666.667C2000,608.627,1952.776,561.403,1894.736,561.403z M1394.377,956.215
		c35.627-61.359,202.193-108.465,395.097-113.618v139.859h-400.285C1387.746,975.824,1388.162,966.917,1394.377,956.215z
		 M140.351,1368.421H70.175V842.105c0-19.347,15.741-35.088,35.088-35.088c19.346,0,35.088,15.741,35.088,35.088V1368.421z
		 M210.526,1228.07v-35.088h1122.807c19.378,0,35.088-15.711,35.088-35.088s-15.71-35.088-35.088-35.088H210.526v-70.175h1578.947
		v70.175h-105.263c-19.377,0-35.088,15.711-35.088,35.088s15.711,35.088,35.088,35.088h105.263v35.088H210.526z M1929.824,1368.421
		h-70.176V666.667c0-19.347,15.742-35.088,35.088-35.088c19.348,0,35.088,15.741,35.088,35.088V1368.421z"/>
</g>
</svg>
