<?xml version="1.0" encoding="utf-8"?>
<!-- Generator: Adobe Illustrator 16.0.0, SVG Export Plug-In . SVG Version: 6.00 Build 0)  -->
<!DOCTYPE svg PUBLIC "-//W3C//DTD SVG 1.1//EN" "http://www.w3.org/Graphics/SVG/1.1/DTD/svg11.dtd">
<svg version="1.1" id="Capa_1" xmlns="http://www.w3.org/2000/svg" xmlns:xlink="http://www.w3.org/1999/xlink" x="0px" y="0px"
	 width="2000px" height="2000px" viewBox="0 0 2000 2000" enable-background="new 0 0 2000 2000" xml:space="preserve">
<g>
	<path fill="#BEC1CD" d="M162.504,489.316c35.438-11.812,60.328-27.609,74.672-47.406c14.344-19.812,21.516-52.047,21.516-96.703
		h-99.188v-183h184v149.922c-0.438,48.906-5.516,86.875-15.234,113.875c-16.078,41.75-41.031,73.578-74.859,95.516
		c-19.891,12.641-50.141,24.875-90.734,36.688L162.504,489.316z M446.504,489.316c41.75-11.812,69.812-33.938,84.156-66.375
		c8.016-18.531,12.031-44.453,12.031-77.734h-99.188v-183h184v149.922c-1.703,52.281-6.781,91.297-15.234,117.031
		c-10.172,29.516-29.969,56.188-59.391,80.031c-29.438,23.812-64.891,40.156-106.375,49.016V489.316z"/>
</g>
</svg>
