<?xml version="1.0" encoding="utf-8"?>
<!-- Generator: Adobe Illustrator 16.0.0, SVG Export Plug-In . SVG Version: 6.00 Build 0)  -->
<!DOCTYPE svg PUBLIC "-//W3C//DTD SVG 1.1//EN" "http://www.w3.org/Graphics/SVG/1.1/DTD/svg11.dtd">
<svg version="1.1" id="Capa_1" xmlns="http://www.w3.org/2000/svg" xmlns:xlink="http://www.w3.org/1999/xlink" x="0px" y="0px"
	 width="2000px" height="2000px" viewBox="0 0 2000 2000" enable-background="new 0 0 2000 2000" xml:space="preserve">
<g>
	<path fill="#2B2F40" d="M1177.863,580.547c-4.593-10.074-10.777-20.382-18.555-30.925c-7.777-10.526-17.851-19.929-30.221-28.176
		s-26.802-15.102-43.295-20.6c-16.493-5.498-35.266-8.247-56.335-8.247c-43.981,0-79.7,10.761-107.188,32.282
		c-27.489,21.521-41.216,51.508-41.216,89.958c0,21.069,3.905,39.389,11.716,54.943c7.811,15.571,17.918,29.081,30.321,40.513
		c12.403,11.448,26.634,21.287,42.725,29.533c16.074,8.247,32.835,16.024,50.301,23.349l119.894,56.301
		c38.585,18.32,71.89,42.809,99.915,73.482s42.037,71.202,42.037,121.554c0,45.792-11.984,84.008-35.953,114.681
		c-23.969,30.674-53.016,52.43-87.108,65.252c31.98,19.226,56.184,42.809,72.644,70.733c16.443,27.925,24.673,61.581,24.673,100.937
		c0,38.468-7.09,71.655-21.254,99.58c-14.163,27.924-33.354,51.272-57.592,70.045c-24.236,18.773-51.927,32.501-83.069,41.217
		c-31.143,8.682-63.207,13.04-96.177,13.04c-61.38,0-116.592-12.856-165.602-38.534c-49.01-25.712-84.511-65.588-106.485-119.643
		l90.696-43.982c15.555,43.044,40.06,73.733,73.499,92.07c33.439,18.32,69.409,27.489,107.893,27.489
		c16.477,0,33.875-2.062,52.212-6.169c18.32-4.14,35.501-11.229,51.524-21.286c16.023-10.091,29.315-23.818,39.858-41.217
		c10.526-17.398,15.806-39.372,15.806-65.922c0-32.953-9.872-59.738-29.583-80.354c-19.729-20.6-44.267-37.764-73.633-51.508
		l-174.754-83.773c-18.354-8.246-35.333-17.851-50.921-28.846c-15.604-10.979-29.366-23.566-41.283-37.764
		c-11.934-14.197-21.337-30.908-28.209-50.133c-6.889-19.226-10.325-41.669-10.325-67.314c0-45.775,13.543-84.226,40.629-115.369
		c27.086-31.125,61.313-53.1,102.646-65.922c-10.073-6.403-21.287-14.197-33.64-23.348c-12.37-9.152-23.801-20.131-34.328-32.953
		c-10.526-12.822-19.46-28.159-26.785-46.027c-7.325-17.851-10.979-38.685-10.979-62.486c0-36.624,6.839-68.671,20.549-96.143
		c13.711-27.455,32.215-50.116,55.53-67.984c23.315-17.851,49.865-31.125,79.633-39.825c29.769-8.699,60.693-13.057,92.758-13.057
		c61.38,0,111.295,12.621,149.779,37.864s64.581,55.715,78.326,91.45L1177.863,580.547z M963.888,844.237
		c-12.856,1.844-26.399,5.28-40.613,10.308c-14.23,5.028-27.539,12.353-39.925,21.974c-12.403,9.621-22.494,21.991-30.288,37.11
		c-7.811,15.119-11.699,33.204-11.699,54.273c0,18.337,3.201,34.143,9.638,47.418c6.42,13.274,16.058,25.192,28.914,35.718
		c12.839,10.543,28.444,20.398,46.797,29.551c18.354,9.168,39.474,18.789,63.342,28.846l90.863,41.233
		c11.012-2.749,22.477-7.325,34.411-13.744c11.934-6.403,22.711-14.649,32.349-24.724c9.639-10.073,17.667-21.99,24.104-35.734
		c6.419-13.745,9.638-29.769,9.638-48.105c0-20.147-3.453-37.998-10.325-53.586c-6.889-15.571-16.526-29.081-28.913-40.529
		c-12.403-11.448-26.634-21.521-42.691-30.237c-16.058-8.699-33.271-16.711-51.608-24.053L963.888,844.237z"/>
</g>
</svg>
