<?xml version="1.0" encoding="utf-8"?>
<!-- Generator: Adobe Illustrator 16.0.0, SVG Export Plug-In . SVG Version: 6.00 Build 0)  -->
<!DOCTYPE svg PUBLIC "-//W3C//DTD SVG 1.1//EN" "http://www.w3.org/Graphics/SVG/1.1/DTD/svg11.dtd">
<svg version="1.1" id="Capa_1" xmlns="http://www.w3.org/2000/svg" xmlns:xlink="http://www.w3.org/1999/xlink" x="0px" y="0px"
	 width="2000px" height="2000px" viewBox="0 0 2000 2000" enable-background="new 0 0 2000 2000" xml:space="preserve">
<g>
	<path fill="#2B2F40" d="M1550,1033.333c-135.733,0-247.867,102-264.367,233.334H916.667V1062.5
		c34.666-8.634,64.633-30.6,83.533-62.434L1430.867,271.7c25.199-42.5,25.633-93.533,1.166-136.467s-68.566-68.567-118-68.567
		H1238.3C1219.5,27.4,1179.7,0,1133.333,0C1080.133,0,950,40.9,950,116.667c0,75.767,130.133,116.667,183.333,116.667
		c58.601,0,106.8-43.6,114.967-100h65.7c25.167,0,47.634,13.066,60.066,34.933c12.467,21.833,12.233,47.833-0.6,69.5L942.8,966.133
		C930.233,987.333,908,1000,883.333,1000c-24.666,0-46.899-12.667-59.7-34.2L380.934,237.733
		c-12.834-21.633-13.066-47.633-0.601-69.467c12.467-21.867,34.934-34.933,60.067-34.933h77.933c8.2,56.4,56.4,100,115,100
		c53.2,0,183.334-40.9,183.334-116.667C816.667,40.9,686.533,0,633.333,0c-46.366,0-86.166,27.4-104.966,66.667H440.4
		c-49.434,0-93.533,25.667-118,68.6c-24.467,42.934-24.033,93.934,1.366,136.767L766.5,1000.1
		c18.867,31.834,48.833,53.767,83.5,62.4v204.167H550c-202.167,0-366.667,164.5-366.667,366.666
		C183.333,1835.5,347.833,2000,550,2000s366.667-164.5,366.667-366.667v-300h368.966c16.5,131.334,128.634,233.334,264.367,233.334
		c147.033,0,266.667-119.634,266.667-266.667S1697.033,1033.333,1550,1033.333z M1133.333,166.667
		c-41.133,0-111.933-32.966-116.6-50c4.667-17.033,75.467-50,116.6-50c27.567,0,50,22.434,50,50
		C1183.333,144.233,1160.9,166.667,1133.333,166.667z M633.333,66.667c41.134,0,111.934,32.967,116.601,50
		c-4.667,17.034-75.467,50-116.601,50c-27.566,0-50-22.433-50-50C583.333,89.1,605.767,66.667,633.333,66.667z M850,1633.333
		c0,165.434-134.6,300-300,300s-300-134.566-300-300c0-165.433,134.6-300,300-300h300V1633.333z M1550,1500
		c-110.3,0-200-89.7-200-200s89.7-200,200-200s200,89.7,200,200S1660.3,1500,1550,1500z"/>
	<path fill="#2B2F40" d="M1550,1166.667c-73.533,0-133.333,59.8-133.333,133.333s59.8,133.333,133.333,133.333
		s133.333-59.8,133.333-133.333S1623.533,1166.667,1550,1166.667z M1550,1366.667c-36.767,0-66.667-29.9-66.667-66.667
		s29.9-66.667,66.667-66.667s66.667,29.9,66.667,66.667S1586.767,1366.667,1550,1366.667z"/>
</g>
</svg>
